<svg width="40" height="40" viewBox="0 0 40 40" fill="none" xmlns="http://www.w3.org/2000/svg">
<path d="M32.0312 2.5H7.96875C4.95319 2.5 2.5 4.99329 2.5 8.05813V31.9407C2.5 35.0056 4.95319 37.4988 7.96875 37.4988H20.957C21.4785 37.4988 21.9547 37.1973 22.1846 36.7213C22.4142 36.2455 22.3576 35.6781 22.0382 35.259L18.4622 30.5618L28.3738 17.7485L34.7656 25.4984V27.8416C34.7656 28.6091 35.3777 29.2311 36.1328 29.2311C36.888 29.2311 37.5 28.6091 37.5 27.8416V8.05813C37.5 4.99329 35.0468 2.5 32.0312 2.5ZM29.3877 14.6516C29.123 14.3308 28.7308 14.1476 28.3185 14.155C27.9065 14.1615 27.5195 14.3563 27.2651 14.6855L16.7366 28.2956L13.1515 23.587C12.8925 23.2466 12.4933 23.0477 12.0703 23.0477H12.0684C11.6447 23.0483 11.2449 23.2485 10.9867 23.59L7.97783 27.5653C7.51747 28.1738 7.62936 29.046 8.22777 29.5139C8.82645 29.9821 9.68468 29.8681 10.145 29.2599L12.0735 26.7121L18.1703 34.7198H7.96875C6.46111 34.7198 5.23438 33.473 5.23438 31.9407V8.05813C5.23438 6.52584 6.46111 5.27906 7.96875 5.27906H32.0312C33.5389 5.27906 34.7656 6.52584 34.7656 8.05813V21.1724L29.3877 14.6516ZM12.0703 9.71688C9.80858 9.71688 7.96875 11.5868 7.96875 13.8855C7.96875 16.1842 9.80858 18.0541 12.0703 18.0541C14.332 18.0541 16.1719 16.1842 16.1719 13.8855C16.1719 11.5868 14.332 9.71688 12.0703 9.71688ZM12.0703 15.275C11.3165 15.275 10.7031 14.6516 10.7031 13.8855C10.7031 13.1193 11.3165 12.4959 12.0703 12.4959C12.8241 12.4959 13.4375 13.1193 13.4375 13.8855C13.4375 14.6516 12.8241 15.275 12.0703 15.275ZM37.5 33.3997C37.5 34.1672 36.888 34.7893 36.1328 34.7893H32.373V38.6105C32.373 39.378 31.761 40 31.0059 40C30.2507 40 29.6387 39.378 29.6387 38.6105V34.7893H25.8789C25.1237 34.7893 24.5117 34.1672 24.5117 33.3997C24.5117 32.6322 25.1237 32.0102 25.8789 32.0102H29.6387V28.189C29.6387 27.4215 30.2507 26.7994 31.0059 26.7994C31.761 26.7994 32.373 27.4215 32.373 28.189V32.0102H36.1328C36.888 32.0102 37.5 32.6322 37.5 33.3997Z" fill="#9CA3AF"/>
</svg>
