<svg width="30" height="36" viewBox="0 0 30 36" fill="none" xmlns="http://www.w3.org/2000/svg">
<path d="M10.9094 23.1612C10.9094 22.3694 11.5513 21.7275 12.3431 21.7275H23.1121C23.9039 21.7275 24.5458 22.3694 24.5458 23.1612C24.5458 23.953 23.9039 24.5949 23.1121 24.5949H12.3431C11.5513 24.5949 10.9094 23.953 10.9094 23.1612Z" fill="#9CA3AF"/>
<path d="M10.9094 28.8961C10.9094 28.1043 11.5513 27.4624 12.3431 27.4624H23.1121C23.9039 27.4624 24.5458 28.1043 24.5458 28.8961C24.5458 29.6879 23.9039 30.3298 23.1121 30.3298H12.3431C11.5513 30.3298 10.9094 29.6879 10.9094 28.8961Z" fill="#9CA3AF"/>
<path d="M16.3637 8.68148V8.18053C16.3637 7.42742 15.7532 6.81689 15 6.81689C14.2469 6.81689 13.6364 7.42742 13.6364 8.18053V8.68148C10.9688 9.25309 8.86259 11.4674 8.31898 14.2721H6.88828C6.09648 14.2721 5.45459 14.914 5.45459 15.7058C5.45459 16.4976 6.09648 17.1395 6.88828 17.1395H23.1118C23.9036 17.1395 24.5455 16.4976 24.5455 15.7058C24.5455 14.914 23.9036 14.2721 23.1118 14.2721H21.6811C21.1375 11.4674 19.0314 9.25302 16.3637 8.68148ZM15 11.4047C16.7777 11.4047 18.2934 12.6034 18.8564 14.2721H11.1437C11.7067 12.6034 13.2223 11.4047 15 11.4047Z" fill="#9CA3AF"/>
<path d="M25.9091 0.222168H4.09091C1.83518 0.222168 0 2.15163 0 4.52324V31.4767C0 33.8483 1.83518 35.7777 4.09091 35.7777H25.9091C28.1648 35.7777 30 33.8483 30 31.4767V4.52324C30 2.15163 28.1648 0.222168 25.9091 0.222168ZM27.2727 31.4767C27.2727 32.2672 26.661 32.9103 25.9091 32.9103H4.09091C3.339 32.9103 2.72727 32.2672 2.72727 31.4767V4.52324C2.72727 3.73271 3.339 3.08955 4.09091 3.08955H25.9091C26.661 3.08955 27.2727 3.73271 27.2727 4.52324V31.4767Z" fill="#9CA3AF"/>
<path d="M6.81823 24.5949C7.57134 24.5949 8.18186 23.953 8.18186 23.1612C8.18186 22.3694 7.57134 21.7275 6.81823 21.7275C6.06511 21.7275 5.45459 22.3694 5.45459 23.1612C5.45459 23.953 6.06511 24.5949 6.81823 24.5949Z" fill="#9CA3AF"/>
<path d="M6.81823 30.3298C7.57134 30.3298 8.18186 29.6879 8.18186 28.8961C8.18186 28.1043 7.57134 27.4624 6.81823 27.4624C6.06511 27.4624 5.45459 28.1043 5.45459 28.8961C5.45459 29.6879 6.06511 30.3298 6.81823 30.3298Z" fill="#9CA3AF"/>
</svg>
