<svg width="40" height="40" viewBox="0 0 40 40" fill="none" xmlns="http://www.w3.org/2000/svg">
<path d="M38.9703 13.6833C37.5996 12.3126 35.3692 12.3126 33.9985 13.6833L24.3586 23.3231C24.3525 23.3292 24.3453 23.3338 24.3389 23.3394C24.8078 22.5705 25.0782 21.6679 25.0782 20.7033C25.0782 17.9032 22.8002 15.6252 20.0001 15.6252C17.2 15.6252 14.922 17.9032 14.922 20.7033C14.922 21.668 15.1925 22.5706 15.6615 23.3395C15.655 23.3338 15.6478 23.3294 15.6417 23.3233L6.00159 13.6833C4.63089 12.3126 2.4005 12.3126 1.02979 13.6833C-0.340986 15.0541 -0.340986 17.2844 1.02979 18.6552L11.797 29.4223V37.2658C11.797 38.7735 13.0236 40.0001 14.5314 40.0001H25.4689C26.9766 40.0001 28.2032 38.7735 28.2032 37.2658V29.4223L38.9703 18.6552C40.3411 17.2843 40.3411 15.054 38.9703 13.6833ZM37.3131 16.9978L26.2028 28.1082C25.983 28.328 25.8595 28.626 25.8595 28.9368V37.2658C25.8595 37.4812 25.6842 37.6564 25.4689 37.6564H14.5314C14.316 37.6564 14.1407 37.4812 14.1407 37.2658V28.9369C14.1407 28.626 14.0173 28.328 13.7975 28.1083L2.68714 16.9978C2.23019 16.5409 2.23019 15.7974 2.68714 15.3405C2.91558 15.112 3.21573 14.9978 3.51573 14.9978C3.81573 14.9978 4.11597 15.112 4.34433 15.3405L13.9845 24.9807C14.501 25.497 15.1876 25.7814 15.9178 25.7814H24.0824C24.8126 25.7814 25.4992 25.497 26.0158 24.9805L35.6559 15.3405C36.1128 14.8836 36.8563 14.8836 37.3132 15.3405C37.77 15.7974 37.77 16.541 37.3131 16.9978ZM17.2657 20.7033C17.2657 19.1956 18.4924 17.9689 20.0001 17.9689C21.5078 17.9689 22.7345 19.1956 22.7345 20.7033C22.7345 22.211 21.5078 23.4377 20.0001 23.4377C18.4924 23.4377 17.2657 22.211 17.2657 20.7033Z" fill="#FD5600"/>
<path d="M15.8701 8.64547L15.2874 12.0432C15.212 12.4828 15.3928 12.9271 15.7536 13.1894C16.1144 13.4514 16.5928 13.4862 16.9878 13.2786L20.0391 11.6744L23.0904 13.2786C23.2619 13.3687 23.4492 13.4132 23.6357 13.4132C23.8786 13.4132 24.1204 13.3377 24.3246 13.1895C24.6854 12.9273 24.8662 12.4829 24.7908 12.0433L24.2081 8.64555L26.6767 6.23922C26.9961 5.92789 27.1111 5.46219 26.9732 5.03797C26.8354 4.61367 26.4687 4.30445 26.0273 4.24039L22.6157 3.74461L21.0899 0.653203C20.8924 0.253203 20.4851 0 20.039 0C19.5929 0 19.1856 0.253203 18.9882 0.653203L17.4625 3.74453L14.051 4.24031C13.6096 4.30438 13.2428 4.61359 13.105 5.03789C12.9671 5.46211 13.0821 5.92781 13.4016 6.23914L15.8701 8.64547ZM19.2916 5.3343L20.039 3.81977L20.7864 5.3343C20.9572 5.68016 21.2871 5.91984 21.6688 5.97531L23.3403 6.2182L22.1309 7.39711C21.8546 7.66633 21.7286 8.05422 21.7939 8.4343L22.0793 10.0991L20.5844 9.31305C20.4136 9.22336 20.2264 9.17844 20.0391 9.17844C19.8518 9.17844 19.6645 9.22328 19.4938 9.31305L17.9989 10.0991L18.2843 8.4343C18.3496 8.05422 18.2235 7.66633 17.9473 7.39711L16.7379 6.2182L18.4094 5.97531C18.7909 5.91984 19.1208 5.68016 19.2916 5.3343Z" fill="#FD5600"/>
</svg>
