<svg width="40" height="40" viewBox="0 0 40 40" fill="none" xmlns="http://www.w3.org/2000/svg">
<path d="M27.2217 6.65063H23.2938C23.4328 4.92398 22.8448 3.1493 21.5269 1.83133C19.1423 -0.553047 15.2626 -0.553047 12.878 1.83133L11.6591 3.05031L10.4401 1.83133C8.05555 -0.553203 4.1757 -0.553125 1.79125 1.83141C0.636172 2.98641 0 4.52227 0 6.15578C0 7.7893 0.636094 9.32508 1.79125 10.4802L4.7468 13.4357C3.76922 15.2741 3.25555 17.3268 3.25555 19.4289C3.25555 26.4749 8.98789 32.2072 16.0339 32.2072H17.9436L26.2712 39.9576V32.2072H27.2217C34.2677 32.2072 40 26.4748 40 19.4289C40 12.383 34.2677 6.65063 27.2217 6.65063ZM3.44992 3.49C4.18492 2.755 5.15016 2.38758 6.11562 2.38758C7.08086 2.38758 8.04648 2.75516 8.78133 3.49L11.659 6.36766L14.5366 3.49C16.0066 2.02023 18.3981 2.02016 19.8681 3.49008C20.5802 4.20211 20.9723 5.14875 20.9723 6.15578C20.9723 7.16273 20.5802 8.10945 19.8681 8.82148L11.6591 17.0306L3.44992 8.82148C1.98008 7.35156 1.98008 4.95992 3.44992 3.49ZM27.2217 29.8615H23.9255V34.5701L18.8663 29.8615H16.0339C10.2813 29.8615 5.60133 25.1815 5.60133 19.4289C5.60133 17.9571 5.90953 16.5155 6.49992 15.1887L11.6591 20.348L21.527 10.4802C21.9753 10.0318 22.3392 9.53055 22.619 8.99633H27.2218C32.9743 8.99633 37.6544 13.6763 37.6544 19.4289C37.6544 25.1815 32.9742 29.8615 27.2217 29.8615Z" fill="#FD5600"/>
<path d="M15.2302 18.7617H17.7094V21.1075H15.2302V18.7617Z" fill="#FD5600"/>
<path d="M20.7041 18.7617H23.1832V21.1075H20.7041V18.7617Z" fill="#FD5600"/>
<path d="M26.1777 18.7617H28.6569V21.1075H26.1777V18.7617Z" fill="#FD5600"/>
</svg>
