<svg width="40" height="40" viewBox="0 0 40 40" fill="none" xmlns="http://www.w3.org/2000/svg">
<path fill-rule="evenodd" clip-rule="evenodd" d="M40 20C40 31.028 31.028 40 20 40C8.97197 40 0 31.028 0 20C0 8.97197 8.97184 0 20 0C31.0282 0 40 8.97197 40 20ZM36.1693 20C36.1693 11.0842 28.9158 3.83068 20 3.83068C11.0842 3.83068 3.83068 11.0842 3.83068 20C3.83068 28.9158 11.0842 36.1693 20 36.1693C28.9158 36.1693 36.1693 28.9158 36.1693 20ZM16.7949 14.4827C16.8544 15.8125 15.6204 16.9451 14.3324 16.9451C12.9519 16.9451 11.9298 15.8168 11.87 14.4827C11.8104 13.1529 13.0444 12.0203 14.3324 12.0203C15.7129 12.0203 16.7351 13.1486 16.7949 14.4827ZM23.2052 25.6942C23.265 27.0283 24.2871 28.1566 25.6676 28.1566C26.9556 28.1566 28.1896 27.0239 28.1299 25.6942C28.0702 24.3601 27.048 23.2318 25.6676 23.2318C24.3796 23.2317 23.1456 24.3643 23.2052 25.6942ZM15.9384 31.7889C15.6913 31.7889 15.4401 31.7407 15.198 31.6391C14.2226 31.2297 13.7638 30.1072 14.1732 29.1318L22.5662 9.13305C22.9757 8.15763 24.0981 7.69897 25.0735 8.10821C26.0488 8.51759 26.5077 9.64011 26.0984 10.6155L17.7053 30.6143C17.3976 31.3474 16.6868 31.7889 15.9384 31.7889Z" fill="#FD5600"/>
</svg>
