<svg width="40" height="40" viewBox="0 0 40 40" fill="none" xmlns="http://www.w3.org/2000/svg">
<g clip-path="url(#clip0)">
<path d="M38.4329 28.397C37.37 27.334 35.9566 26.7485 34.4534 26.7485C32.9501 26.7485 31.5368 27.334 30.4739 28.397L26.956 31.9147H25.2877C25.9986 30.955 26.4194 29.7678 26.4194 28.4845C26.4194 27.837 25.8944 27.3121 25.247 27.3121H21.354C20.0817 27.3121 18.86 26.7349 17.5665 26.1239C16.2098 25.4829 14.8069 24.8202 13.1665 24.7112C11.732 24.6157 10.2938 24.7727 8.89222 25.1774C7.39988 25.6083 6.32501 26.9294 6.18447 28.4579H2.3963C1.74881 28.4579 1.22388 28.9829 1.22388 29.6303V38.8275C1.22388 39.4749 1.74881 39.9999 2.3963 39.9999H26.3374C27.7242 39.9999 29.0282 39.4598 30.0089 38.4791L38.4329 30.055C38.8908 29.5972 38.8908 28.8549 38.4329 28.397ZM3.56872 30.8028H6.16861V37.655H3.56872V30.8028ZM28.3509 36.821C27.813 37.3589 27.098 37.655 26.3374 37.655H8.51345V28.7913C8.51525 28.1644 8.93849 27.6046 9.54292 27.4302C10.682 27.1012 11.849 26.9735 13.011 27.0508C14.2076 27.1304 15.3527 27.6712 16.565 28.2441C18.0355 28.9387 19.5559 29.6569 21.3541 29.6569H23.8682C23.4142 30.9016 22.2585 31.8112 20.8824 31.9059C20.8262 31.8977 14.7681 31.892 14.7681 31.892C14.4834 31.892 14.2226 31.9936 14.0195 32.1622C13.752 32.3771 13.5803 32.7065 13.5803 33.0763C13.5803 33.7238 14.1052 34.2488 14.7527 34.2488L27.4417 34.2595C27.7527 34.2595 28.0509 34.136 28.2707 33.916L32.1319 30.0549C32.752 29.4348 33.5764 29.0933 34.4534 29.0933C34.9231 29.0933 35.3779 29.1913 35.7941 29.3777L28.3509 36.821Z" fill="#FD5600"/>
<path d="M22.5952 24.4849C29.3457 24.4849 34.8377 18.9929 34.8377 12.2424C34.8377 5.49194 29.3458 0 22.5952 0C15.8446 0 10.3528 5.49194 10.3528 12.2424C10.3528 18.9929 15.8447 24.4849 22.5952 24.4849ZM22.5952 2.34484C28.0528 2.34484 32.4928 6.78489 32.4928 12.2424C32.4928 17.7 28.0528 22.14 22.5952 22.14C17.1377 22.14 12.6976 17.7 12.6976 12.2424C12.6976 6.78489 17.1377 2.34484 22.5952 2.34484Z" fill="#FD5600"/>
<path d="M19.126 10.3724C19.9144 10.3724 20.6697 9.67915 20.6333 8.86518C20.5967 8.04855 19.9711 7.35791 19.126 7.35791C18.3376 7.35791 17.5822 8.0512 17.6187 8.86518C17.6553 9.68181 18.281 10.3724 19.126 10.3724Z" fill="#FD5600"/>
<path d="M24.5572 15.728C24.5938 16.5446 25.2194 17.2352 26.0645 17.2352C26.8529 17.2352 27.6082 16.5419 27.5717 15.728C27.5351 14.9113 26.9095 14.2207 26.0645 14.2207C25.276 14.2206 24.5207 14.9139 24.5572 15.728Z" fill="#FD5600"/>
<path d="M19.6558 19.367C19.804 19.4292 19.9577 19.4587 20.1089 19.4587C20.567 19.4587 21.0022 19.1885 21.1905 18.7396L26.3281 6.49799C26.5787 5.90092 26.2978 5.2138 25.7008 4.96321C25.1037 4.71271 24.4166 4.99346 24.166 5.59054L19.0284 17.8322C18.7778 18.4293 19.0587 19.1164 19.6558 19.367Z" fill="#FD5600"/>
</g>
<defs>
<clipPath id="clip0">
<rect width="40" height="40" fill="white"/>
</clipPath>
</defs>
</svg>
