<svg width="40" height="40" viewBox="0 0 40 40" fill="none" xmlns="http://www.w3.org/2000/svg">
<path fill-rule="evenodd" clip-rule="evenodd" d="M37.3333 20C37.3333 29.5729 29.5729 37.3333 20 37.3333C10.4271 37.3333 2.66667 29.5729 2.66667 20C2.66667 10.4271 10.4271 2.66667 20 2.66667C29.5729 2.66667 37.3333 10.4271 37.3333 20ZM40 20C40 31.0457 31.0457 40 20 40C8.95431 40 0 31.0457 0 20C0 8.95431 8.95431 0 20 0C31.0457 0 40 8.95431 40 20ZM20.9998 9.33349C20.0793 9.33349 19.3331 10.0797 19.3331 11.0002V12.6671H17.9998C15.7907 12.6671 13.9998 14.4579 13.9998 16.6671V28.8334C13.9998 29.8461 14.8208 30.6671 15.8335 30.6671C16.8462 30.6671 17.6671 29.8461 17.6671 28.8334V23.7559H19.3331V25.0001C19.3331 25.9206 20.0793 26.6668 20.9998 26.6668C21.9202 26.6668 22.6664 25.9206 22.6664 25.0001V23.5868C23.3358 23.4585 23.9309 23.2569 24.4517 22.9823C25.4471 22.4665 26.1718 21.7874 26.6259 20.945C27.0974 20.1026 27.3331 19.2 27.3331 18.2373C27.3331 17.1714 27.0799 16.2172 26.5735 15.3748C26.0845 14.5324 25.3423 13.8705 24.3469 13.3891C23.8409 13.1444 23.2807 12.9619 22.6664 12.8416V11.0002C22.6664 10.0797 21.9202 9.33349 20.9998 9.33349ZM22.8276 20.1714C22.3386 20.6184 21.5877 20.8419 20.5748 20.8419H17.6671V15.6069H20.5748C22.5656 15.6069 23.561 16.4837 23.561 18.2373C23.561 19.0625 23.3165 19.7072 22.8276 20.1714Z" fill="#FD5600"/>
</svg>
