<svg width="42" height="42" viewBox="0 0 42 42" fill="none" xmlns="http://www.w3.org/2000/svg">
<path d="M9.58868 21.7739C9.81522 21.9269 10.0714 22 10.3249 22C10.7525 22 11.1723 21.7916 11.428 21.4062C13.5706 18.1765 17.1522 16.2483 21.0088 16.2483C24.854 16.2483 28.4297 18.1677 30.5738 21.3826C30.9826 21.9955 31.8065 22.1581 32.414 21.7457C33.0217 21.3334 33.1828 20.5022 32.774 19.8893C31.061 17.3208 28.6049 15.4255 25.7983 14.4116C27.4814 13.0246 28.558 10.9155 28.558 8.55728C28.558 4.39014 25.1973 1 21.0663 1C16.9354 1 13.5747 4.39014 13.5747 8.55728C13.5747 10.8986 14.6356 12.9945 16.2979 14.3818C13.4474 15.3919 10.9544 17.3101 9.22411 19.9184C8.81684 20.5324 8.98007 21.3631 9.58868 21.7739ZM21.0663 3.67514C23.735 3.67514 25.9061 5.86528 25.9061 8.55728C25.9061 11.2493 23.735 13.4394 21.0663 13.4394C18.3977 13.4394 16.2266 11.2493 16.2266 8.55728C16.2266 5.86528 18.3977 3.67514 21.0663 3.67514Z" fill="#FD5600"/>
<path d="M2.82249 35.6455L2.23976 39.0432C2.16437 39.4828 2.34515 39.9271 2.70601 40.1894C3.06679 40.4514 3.54523 40.4862 3.94015 40.2786L6.99148 38.6744L10.0428 40.2786C10.2143 40.3687 10.4016 40.4132 10.588 40.4132C10.831 40.4132 11.0728 40.3377 11.277 40.1895C11.6378 39.9273 11.8186 39.4829 11.7432 39.0433L11.1605 35.6455L13.6291 33.2392C13.9485 32.9279 14.0635 32.4622 13.9256 32.038C13.7878 31.6137 13.4211 31.3045 12.9797 31.2404L9.56813 30.7446L8.04226 27.6532C7.84484 27.2532 7.4375 27 6.9914 27C6.54531 27 6.13797 27.2532 5.94054 27.6532L4.41492 30.7445L1.00335 31.2403C0.561944 31.3044 0.195146 31.6136 0.0574116 32.0379C-0.0804792 32.4621 0.0345213 32.9278 0.353975 33.2391L2.82249 35.6455ZM6.24398 32.3343L6.9914 30.8198L7.73883 32.3343C7.90961 32.6802 8.23945 32.9198 8.62117 32.9753L10.2927 33.2182L9.08328 34.3971C8.80703 34.6663 8.68102 35.0542 8.74625 35.4343L9.03172 37.0991L7.5368 36.313C7.36601 36.2234 7.17875 36.1784 6.99148 36.1784C6.80422 36.1784 6.61687 36.2233 6.44617 36.313L4.95125 37.0991L5.23671 35.4343C5.30195 35.0542 5.17593 34.6663 4.89968 34.3971L3.69031 33.2182L5.36179 32.9753C5.74328 32.9198 6.0732 32.6802 6.24398 32.3343Z" fill="#FD5600"/>
<path d="M16.8225 29.6455L16.2398 33.0432C16.1644 33.4828 16.3451 33.9271 16.706 34.1894C17.0668 34.4514 17.5452 34.4862 17.9402 34.2786L20.9915 32.6744L24.0428 34.2786C24.2143 34.3687 24.4016 34.4132 24.588 34.4132C24.831 34.4132 25.0728 34.3377 25.277 34.1895C25.6378 33.9273 25.8186 33.4829 25.7432 33.0433L25.1605 29.6455L27.6291 27.2392C27.9485 26.9279 28.0635 26.4622 27.9256 26.038C27.7878 25.6137 27.4211 25.3045 26.9797 25.2404L23.5681 24.7446L22.0423 21.6532C21.8448 21.2532 21.4375 21 20.9914 21C20.5453 21 20.138 21.2532 19.9405 21.6532L18.4149 24.7445L15.0034 25.2403C14.5619 25.3044 14.1951 25.6136 14.0574 26.0379C13.9195 26.4621 14.0345 26.9278 14.354 27.2391L16.8225 29.6455ZM20.244 26.3343L20.9914 24.8198L21.7388 26.3343C21.9096 26.6802 22.2395 26.9198 22.6212 26.9753L24.2927 27.2182L23.0833 28.3971C22.807 28.6663 22.681 29.0542 22.7463 29.4343L23.0317 31.0991L21.5368 30.313C21.366 30.2234 21.1787 30.1784 20.9915 30.1784C20.8042 30.1784 20.6169 30.2233 20.4462 30.313L18.9512 31.0991L19.2367 29.4343C19.3019 29.0542 19.1759 28.6663 18.8997 28.3971L17.6903 27.2182L19.3618 26.9753C19.7433 26.9198 20.0732 26.6802 20.244 26.3343Z" fill="#FD5600"/>
<path d="M30.8225 35.6455L30.2398 39.0432C30.1644 39.4828 30.3451 39.9271 30.706 40.1894C31.0668 40.4514 31.5452 40.4862 31.9402 40.2786L34.9915 38.6744L38.0428 40.2786C38.2143 40.3687 38.4016 40.4132 38.588 40.4132C38.831 40.4132 39.0728 40.3377 39.277 40.1895C39.6378 39.9273 39.8186 39.4829 39.7432 39.0433L39.1605 35.6455L41.6291 33.2392C41.9485 32.9279 42.0635 32.4622 41.9256 32.038C41.7878 31.6137 41.4211 31.3045 40.9797 31.2404L37.5681 30.7446L36.0423 27.6532C35.8448 27.2532 35.4375 27 34.9914 27C34.5453 27 34.138 27.2532 33.9405 27.6532L32.4149 30.7445L29.0034 31.2403C28.5619 31.3044 28.1951 31.6136 28.0574 32.0379C27.9195 32.4621 28.0345 32.9278 28.354 33.2391L30.8225 35.6455ZM34.244 32.3343L34.9914 30.8198L35.7388 32.3343C35.9096 32.6802 36.2395 32.9198 36.6212 32.9753L38.2927 33.2182L37.0833 34.3971C36.807 34.6663 36.681 35.0542 36.7463 35.4343L37.0317 37.0991L35.5368 36.313C35.366 36.2234 35.1787 36.1784 34.9915 36.1784C34.8042 36.1784 34.6169 36.2233 34.4462 36.313L32.9512 37.0991L33.2367 35.4343C33.3019 35.0542 33.1759 34.6663 32.8997 34.3971L31.6903 33.2182L33.3618 32.9753C33.7433 32.9198 34.0732 32.6802 34.244 32.3343Z" fill="#FD5600"/>
</svg>
