<svg width="40" height="40" viewBox="0 0 40 40" fill="none" xmlns="http://www.w3.org/2000/svg">
<g clip-path="url(#clip0)">
<path d="M35.4167 40H4.58333C2.055 40 0 37.945 0 35.4167V14.5833C0 12.055 2.055 10 4.58333 10H5.41667C6.10667 10 6.66667 10.56 6.66667 11.25C6.66667 11.94 6.10667 12.5 5.41667 12.5H4.58333C3.435 12.5 2.5 13.435 2.5 14.5833V35.4167C2.5 36.565 3.435 37.5 4.58333 37.5H35.4167C36.565 37.5 37.5 36.565 37.5 35.4167V14.5833C37.5 13.435 36.565 12.5 35.4167 12.5H34.5833C33.8933 12.5 33.3333 11.94 33.3333 11.25C33.3333 10.56 33.8933 10 34.5833 10H35.4167C37.945 10 40 12.055 40 14.5833V35.4167C40 37.945 37.945 40 35.4167 40Z" fill="#FD5600"/>
<path d="M38.3332 31.667H1.6665C0.976504 31.667 0.416504 31.107 0.416504 30.417C0.416504 29.727 0.976504 29.167 1.6665 29.167H38.3332C39.0232 29.167 39.5832 29.727 39.5832 30.417C39.5832 31.107 39.0232 31.667 38.3332 31.667Z" fill="#FD5600"/>
<path d="M20 39.5837C19.31 39.5837 18.75 39.0237 18.75 38.3337V30.417C18.75 29.727 19.31 29.167 20 29.167C20.69 29.167 21.25 29.727 21.25 30.417V38.3337C21.25 39.0237 20.69 39.5837 20 39.5837Z" fill="#FD5600"/>
<path d="M19.9998 21.6667C14.0265 21.6667 9.1665 16.8067 9.1665 10.8333C9.1665 4.86 14.0265 0 19.9998 0C25.9732 0 30.8332 4.86 30.8332 10.8333C30.8332 16.8067 25.9732 21.6667 19.9998 21.6667ZM19.9998 2.5C15.4048 2.5 11.6665 6.23833 11.6665 10.8333C11.6665 15.4283 15.4048 19.1667 19.9998 19.1667C24.5948 19.1667 28.3332 15.4283 28.3332 10.8333C28.3332 6.23833 24.5948 2.5 19.9998 2.5Z" fill="#FD5600"/>
<path d="M18.3333 15.0002C18.0449 15.0002 17.7549 14.9002 17.5199 14.6985L14.6033 12.1985C14.0783 11.7502 14.0183 10.9602 14.4683 10.4368C14.9199 9.91349 15.7083 9.85349 16.2316 10.3018L18.2349 12.0202L22.8333 7.06682C23.3033 6.56015 24.0949 6.53182 24.6016 7.00015C25.1066 7.47015 25.1349 8.26182 24.6666 8.76682L19.2499 14.6002C19.0033 14.8652 18.6683 15.0002 18.3333 15.0002Z" fill="#FD5600"/>
</g>
<defs>
<clipPath id="clip0">
<rect width="40" height="40" fill="white"/>
</clipPath>
</defs>
</svg>
