<svg width="40" height="40" viewBox="0 0 40 40" fill="none" xmlns="http://www.w3.org/2000/svg">
<g clip-path="url(#clip0)">
<path d="M30.1433 28.9455C29.93 28.9455 29.7167 28.8638 29.5533 28.7021L26.0183 25.1671C25.6933 24.8421 25.165 24.8421 24.84 25.1671C24.515 25.4921 24.515 26.0205 24.84 26.3455C25.165 26.6705 25.165 27.1988 24.84 27.5238C24.515 27.8488 23.9867 27.8488 23.6617 27.5238C22.6867 26.5488 22.6867 24.9638 23.6617 23.9888C24.6367 23.0155 26.2217 23.0155 27.1967 23.9888L30.7333 27.5238C31.0583 27.8488 31.0583 28.3771 30.7333 28.7021C30.57 28.8638 30.3567 28.9455 30.1433 28.9455Z" fill="#FD5600"/>
<path d="M27.7851 26.5884C27.5717 26.5884 27.3584 26.5067 27.1951 26.345C26.2234 25.37 26.2234 23.785 27.1951 22.81C28.1401 21.8667 29.7867 21.8667 30.7317 22.81L33.0884 25.1667C33.4134 25.4917 33.4134 26.02 33.0884 26.345C32.7634 26.67 32.2351 26.67 31.9101 26.345L29.5534 23.9884C29.2267 23.6617 28.6984 23.665 28.3734 23.9884C28.0501 24.3134 28.0501 24.8417 28.3734 25.1667C28.6967 25.4917 28.6984 26.02 28.3734 26.345C28.2117 26.5067 27.9984 26.5884 27.7851 26.5884Z" fill="#FD5600"/>
<path d="M30.4534 39.9963C29.84 39.9963 29.2234 39.9213 28.6167 39.7663L22.805 38.2846C22.5884 38.2296 22.4034 38.0913 22.2917 37.898C21.895 37.218 21.485 35.5896 22.7784 34.2996C23.3517 33.7263 24.1234 33.503 24.8767 33.4513L17.7684 26.343C16.7934 25.368 16.7934 23.783 17.7684 22.808C18.7134 21.8646 20.3617 21.8646 21.305 22.808L28.375 29.878C28.7 30.203 28.7 30.7313 28.375 31.0563C28.05 31.3813 27.5217 31.3813 27.1967 31.0563L20.125 23.9863C19.8117 23.673 19.2634 23.673 18.9467 23.9863C18.6217 24.3113 18.6217 24.8396 18.9467 25.1646L27.785 34.0046C28.0584 34.278 28.1067 34.7013 27.905 35.0296C27.7034 35.358 27.305 35.5013 26.9334 35.3846C26.2234 35.153 24.565 34.868 23.955 35.478C23.4884 35.9446 23.525 36.4613 23.6134 36.7713L29.0267 38.1513C31.0067 38.6596 33.1434 38.0713 34.5917 36.623L36.6234 34.593C38.8967 32.318 38.8967 28.618 36.6234 26.343L33.0867 22.808C32.7717 22.493 32.2234 22.493 31.9084 22.808C31.7484 22.9663 31.6634 23.1746 31.6617 23.3963C31.6617 23.6196 31.7484 23.8296 31.9067 23.9863C32.2317 24.3113 32.2317 24.8396 31.9067 25.1646C31.5817 25.4896 31.0534 25.4896 30.7284 25.1646C30.255 24.6913 29.995 24.063 29.995 23.3946C29.995 22.728 30.2567 22.0996 30.73 21.628C31.6717 20.6813 33.32 20.6813 34.265 21.628L37.8 25.163C40.7234 28.088 40.7234 32.8446 37.8 35.7696L35.7684 37.7996C34.3534 39.2213 32.4217 39.9963 30.4534 39.9963Z" fill="#FD5600"/>
<path d="M17.5 35H4.16667C1.87 35 0 33.1317 0 30.8333V9.16667C0 6.86833 1.87 5 4.16667 5H7.5C7.96 5 8.33333 5.37333 8.33333 5.83333C8.33333 6.29333 7.96 6.66667 7.5 6.66667H4.16667C2.78833 6.66667 1.66667 7.78833 1.66667 9.16667V30.8333C1.66667 32.2117 2.78833 33.3333 4.16667 33.3333H17.5C17.96 33.3333 18.3333 33.7067 18.3333 34.1667C18.3333 34.6267 17.96 35 17.5 35Z" fill="#FD5600"/>
<path d="M19.1665 10H9.1665C7.78817 10 6.6665 8.87833 6.6665 7.5V4.16667C6.6665 3.70667 7.03984 3.33333 7.49984 3.33333H10.0832C10.4715 1.43333 12.1532 0 14.1665 0C16.1798 0 17.8615 1.43333 18.2498 3.33333H20.8332C21.2932 3.33333 21.6665 3.70667 21.6665 4.16667V7.5C21.6665 8.87833 20.5448 10 19.1665 10ZM8.33317 5V7.5C8.33317 7.95833 8.7065 8.33333 9.1665 8.33333H19.1665C19.6265 8.33333 19.9998 7.95833 19.9998 7.5V5H17.4998C17.0398 5 16.6665 4.62667 16.6665 4.16667C16.6665 2.78833 15.5448 1.66667 14.1665 1.66667C12.7882 1.66667 11.6665 2.78833 11.6665 4.16667C11.6665 4.62667 11.2932 5 10.8332 5H8.33317Z" fill="#FD5600"/>
<path d="M27.5 20C27.04 20 26.6667 19.6267 26.6667 19.1667V9.16667C26.6667 7.78833 25.545 6.66667 24.1667 6.66667H20.8333C20.3733 6.66667 20 6.29333 20 5.83333C20 5.37333 20.3733 5 20.8333 5H24.1667C26.4633 5 28.3333 6.86833 28.3333 9.16667V19.1667C28.3333 19.6267 27.96 20 27.5 20Z" fill="#FD5600"/>
<path d="M22.5 14.9997H5.83333C5.37333 14.9997 5 14.6263 5 14.1663C5 13.7063 5.37333 13.333 5.83333 13.333H22.5C22.96 13.333 23.3333 13.7063 23.3333 14.1663C23.3333 14.6263 22.96 14.9997 22.5 14.9997Z" fill="#FD5600"/>
<path d="M22.5 19.9997H5.83333C5.37333 19.9997 5 19.6263 5 19.1663C5 18.7063 5.37333 18.333 5.83333 18.333H22.5C22.96 18.333 23.3333 18.7063 23.3333 19.1663C23.3333 19.6263 22.96 19.9997 22.5 19.9997Z" fill="#FD5600"/>
<path d="M14.1667 24.9997H5.83333C5.37333 24.9997 5 24.6263 5 24.1663C5 23.7063 5.37333 23.333 5.83333 23.333H14.1667C14.6267 23.333 15 23.7063 15 24.1663C15 24.6263 14.6267 24.9997 14.1667 24.9997Z" fill="#FD5600"/>
</g>
<defs>
<clipPath id="clip0">
<rect width="40" height="40" fill="white"/>
</clipPath>
</defs>
</svg>
