<svg   viewBox="0 0 199 50" fill="none" xmlns="http://www.w3.org/2000/svg">
<path fill-rule="evenodd" clip-rule="evenodd" d="M12.8206 11.8706L8.52348 23.2532C8.3514 23.6265 8.3514 24.4151 8.33597 25.1126C8.50959 39.9385 8.5964 47.6656 8.5964 48.2939C8.5964 49.2362 8.95753 50.0817 10.0708 49.9002C10.8131 49.7793 22.1521 48.0172 44.0879 44.6142C45.421 44.4927 45.5518 43.8813 45.5518 43.1422L45.6638 20.6573C45.6638 20.5807 45.6638 19.7072 45.1919 19.2567L35.5746 10.0704C35.3455 9.85099 35.1788 9.93822 34.9965 9.93293L13.1201 11.519C13.0185 11.519 12.9118 11.5904 12.8206 11.8706Z" fill="url(#paint0_linear_1112_18846)"/>
<path fill-rule="evenodd" clip-rule="evenodd" d="M32.9741 2.79043L36.5096 2.93563C36.5096 2.93563 37.9524 2.89598 38.0462 4.57456C38.1529 6.52541 38.3066 9.23228 38.3066 9.23228C38.3066 9.23228 38.3066 9.24238 38.3055 9.25869C38.5036 9.59562 38.712 9.91394 38.791 10.0042C38.791 10.0042 45.2159 17.1626 45.6508 17.7891C45.9034 18.1512 45.5544 18.294 45.3357 18.0878L35.1111 8.32559C35.0068 8.2411 34.9186 8.13809 34.8506 8.02159L30.9051 1.07729C30.7592 0.680779 31.0848 0.839385 31.1056 0.90547L32.9741 2.79043Z" fill="url(#paint1_linear_1112_18846)"/>
<path d="M35.4835 32.6162L35.4809 32.603C37.5591 32.6242 38.0305 33.6181 37.9315 35.1116L37.6971 39.4918C37.5982 41.1228 36.9315 42.3176 34.2646 42.7961C33.8636 42.8727 33.4565 42.9125 33.0484 42.9151C31.2827 42.9151 30.8321 41.9396 30.9311 40.4884L31.1915 35.8095C31.2853 34.0913 32.0718 32.8568 34.8376 32.6374L35.4835 32.6162ZM34.1683 39.7139L34.1813 39.7244L34.4417 39.7033C34.973 39.6346 35.0902 39.4389 35.0902 39.1746L35.2465 36.169C35.2465 36.0104 35.1892 35.8122 34.8168 35.8122H34.6397C34.0902 35.8518 33.973 36.1109 33.973 36.2906L33.7959 39.3359C33.775 39.5553 33.8349 39.7139 34.1683 39.7139Z" fill="#FAFAFA"/>
<path d="M23.066 25.9099H23.0712C25.3474 25.9311 25.8631 27.0202 25.7537 28.6538L25.4933 33.449C25.3813 35.2359 24.6547 36.5365 21.7352 37.0652C21.2963 37.149 20.851 37.1932 20.4044 37.1974C18.472 37.1974 17.9772 36.1241 18.0866 34.5381L18.3652 29.4178C18.472 27.5171 19.3314 26.1716 22.3576 25.9311L23.066 25.9099ZM21.6493 33.6948V33.6895L21.9488 33.6657C22.5295 33.6023 22.6597 33.3829 22.6597 33.1001L22.829 29.809C22.829 29.6345 22.7665 29.4178 22.3576 29.4178H22.1649C21.5633 29.468 21.4357 29.7482 21.4357 29.9464L21.2404 33.2798C21.2196 33.5204 21.2847 33.6948 21.6493 33.6948Z" fill="#FAFAFA"/>
<path d="M31.7723 25.6984L29.6264 25.9442C29.0794 25.9865 28.8711 26.2773 28.7122 26.8773L24.3005 43.375C24.1625 43.9539 24.3005 44.213 24.7328 44.213H24.949L27.2434 43.8138C27.7643 43.7134 27.9882 43.3961 28.1445 42.7564L32.314 26.5469C32.4521 25.9891 32.314 25.6904 31.7645 25.6904" fill="#FAFAFA"/>
<path fill-rule="evenodd" clip-rule="evenodd" d="M15.0299 2.91995C15.0299 2.91995 15.5768 1.50571 15.4753 1.40791C15.4753 1.40791 15.3919 1.11713 14.8528 1.64582L12.3491 4.12124C11.9473 4.51851 11.6231 4.99296 11.3943 5.51845C10.7484 6.95647 9.8317 9.1003 9.06863 10.9058L7.7274 14.0594C7.32373 15.011 7.0659 14.2391 7.0659 14.2391L6.71432 12.9174C6.55736 12.3277 6.3621 11.5891 6.15603 10.8092C6.09883 10.5926 5.7606 10.473 5.53907 10.6982C3.19518 12.9768 1.46642 14.6146 0.665434 15.6532C0.23594 16.1036 0.0211929 16.4509 0.0211929 16.6949V39.4786C-0.00832864 39.6734 0.0245363 39.8726 0.114949 40.047C0.263395 40.2584 6.16171 48.4506 6.82736 49.2697C7.49301 50.0887 7.70396 49.1691 7.68052 48.6199L7.368 24.004C7.368 24.004 7.30029 23.8216 7.49301 23.3008L15.0299 2.91995Z" fill="url(#paint2_linear_1112_18846)"/>
<path fill-rule="evenodd" clip-rule="evenodd" d="M7.05203 5.25671C7.05203 5.25671 5.59621 5.7008 6.04155 7.38996L7.28642 12.0847C7.28642 12.0847 7.48174 12.6715 7.78905 11.9472L11.0705 4.2337C11.0705 4.2337 11.3309 3.63364 10.5965 3.9112L7.05203 5.25671Z" fill="url(#paint3_linear_1112_18846)"/>
<path fill-rule="evenodd" clip-rule="evenodd" d="M16.3704 1.93387C16.6908 1.12784 17.4312 0.57369 18.2845 0.501133L28.0976 0.112549C28.9657 0.119967 29.7699 0.576479 30.2306 1.32324L33.8636 8.10893C33.9059 8.1909 33.9307 8.28095 33.9366 8.37328C33.9543 8.717 33.6944 9.01036 33.3558 9.02885L14.2687 10.3929C14.1757 10.4007 14.0823 10.3871 13.9952 10.3532C13.8466 10.2937 13.7274 10.1767 13.6639 10.0279C13.6004 9.87919 13.5978 9.7109 13.6566 9.56018L16.3704 1.93387ZM28.5847 3.12342C28.8581 2.07398 27.4153 2.37533 27.4153 2.37533L19.4825 2.73483C17.0787 2.63967 18.1569 3.81335 18.1569 3.81335L22.988 8.38649C23.8031 9.07643 24.2693 8.38649 24.2693 8.38649L28.5847 3.12342Z" fill="url(#paint4_linear_1112_18846)"/>
<path fill-rule="evenodd" clip-rule="evenodd" d="M64.0159 13.8513C67.3845 13.8513 70.0014 14.6583 71.8667 16.2722C73.7319 17.8861 74.6646 20.2503 74.6646 23.3648C74.6646 26.4794 73.7319 28.8578 71.8667 30.5C70.0014 32.1422 67.3845 32.9633 64.0159 32.9633H57.3343V42.4343C57.3343 42.7458 57.2229 43.0148 57.0002 43.2413C56.7775 43.4678 56.513 43.5811 56.2068 43.5811H52.8243C52.518 43.5811 52.2535 43.4678 52.0308 43.2413C51.8081 43.0148 51.6967 42.7458 51.6967 42.4343V14.998C51.6967 14.6866 51.8081 14.4176 52.0308 14.1911C52.2535 13.9646 52.518 13.8513 52.8243 13.8513H64.0159ZM57.4387 27.8153H63.9181C65.5066 27.8153 66.7746 27.4944 67.7222 26.8525C68.6697 26.2106 69.1435 25.0908 69.1435 23.4932C69.1435 21.8956 68.6697 20.7901 67.7222 20.1768C66.7746 19.5634 65.5066 19.2567 63.9181 19.2567H57.4387V27.8153ZM77.2232 26.9294C77.334 26.3338 77.5903 25.6957 77.9919 25.015C78.3936 24.3343 78.9615 23.6962 79.6957 23.1006C80.4298 22.505 81.3301 22.0157 82.3967 21.6329C83.4633 21.25 84.7029 21.0585 86.1158 21.0585C87.5287 21.0585 88.803 21.25 89.9388 21.6329C91.0746 22.0157 92.0511 22.5759 92.8684 23.3133C93.6856 24.0507 94.3158 24.9795 94.7591 26.0998C95.2023 27.2201 95.424 28.5035 95.424 29.9499V42.4574C95.424 42.7694 95.3131 43.0389 95.0915 43.2657C94.8699 43.4926 94.6067 43.6061 94.302 43.6061H91.1439C90.8391 43.6061 90.576 43.4926 90.3543 43.2657C90.1327 43.0389 90.0219 42.7694 90.0219 42.4574V41.0535C89.4401 41.876 88.6021 42.578 87.5079 43.1594C86.4136 43.7408 85.0215 44.0315 83.3317 44.0315C82.1404 44.0315 81.0739 43.8684 80.132 43.5423C79.1901 43.2161 78.4006 42.7552 77.7634 42.1596C77.1262 41.564 76.6345 40.8621 76.2882 40.0538C75.9419 39.2455 75.7688 38.3592 75.7688 37.3949C75.7688 35.4379 76.4475 33.9064 77.805 32.8003C79.1624 31.6942 80.9769 30.9426 83.2486 30.5455L90.0219 29.3543C90.0219 28.1915 89.6479 27.369 88.8999 26.8869C88.152 26.4047 87.2239 26.1636 86.1158 26.1636C85.4232 26.1636 84.883 26.2629 84.4952 26.4614C84.1073 26.66 83.7334 26.9294 83.3732 27.2697C83.1239 27.4966 82.8953 27.6526 82.6876 27.7377C82.4798 27.8228 82.2513 27.8653 82.0019 27.8653H78.1374C77.8604 27.8653 77.6249 27.7803 77.431 27.6101C77.237 27.4399 77.1678 27.213 77.2232 26.9294ZM83.6134 38.8513C84.5535 38.8513 85.3899 38.7169 86.1226 38.448C86.8553 38.179 87.4704 37.8181 87.9681 37.3652C88.4658 36.9123 88.8391 36.4028 89.0879 35.8366C89.3367 35.2705 89.4612 34.6902 89.4612 34.0958V33.6711L83.8208 34.6902C82.6872 34.8884 81.8716 35.1785 81.3739 35.5606C80.8762 35.9428 80.6274 36.4594 80.6274 37.1104C80.6274 37.7049 80.9246 38.1437 81.519 38.4267C82.1135 38.7098 82.8116 38.8513 83.6134 38.8513ZM104.367 35.1221V42.4334C104.367 42.7451 104.256 43.0143 104.034 43.241C103.812 43.4677 103.548 43.5811 103.243 43.5811H100.081C99.7758 43.5811 99.5122 43.4677 99.2903 43.241C99.0684 43.0143 98.9575 42.7451 98.9575 42.4334V14.5486C98.9575 14.2369 99.0684 13.9676 99.2903 13.7409C99.5122 13.5142 99.7758 13.4009 100.081 13.4009H103.243C103.548 13.4009 103.812 13.5142 104.034 13.7409C104.256 13.9676 104.367 14.2369 104.367 14.5486V27.9384L111.315 22.1999C111.482 22.0582 111.697 21.9023 111.96 21.7323C112.224 21.5623 112.55 21.4773 112.938 21.4773H117.182C117.459 21.4773 117.695 21.5764 117.889 21.7748C118.083 21.9732 118.181 22.2141 118.181 22.4974C118.181 22.6391 118.16 22.7737 118.118 22.9013C118.077 23.0288 117.945 23.1776 117.723 23.3476L108.028 31.339L118.638 41.7532C118.805 41.9233 118.916 42.065 118.971 42.1783C119.027 42.2917 119.054 42.4192 119.054 42.5609C119.054 42.8443 118.957 43.0851 118.763 43.2835C118.569 43.4819 118.333 43.5811 118.056 43.5811H114.02C113.604 43.5811 113.25 43.496 112.959 43.326C112.667 43.156 112.452 43.0001 112.314 42.8584L104.367 35.1221ZM118.833 32.545C118.833 30.9568 119.068 29.4607 119.537 28.0568C120.006 26.6529 120.682 25.4333 121.565 24.3981C122.447 23.3629 123.516 22.5475 124.772 21.9519C126.027 21.3563 127.427 21.0585 128.972 21.0585C130.516 21.0585 131.917 21.3492 133.172 21.9307C134.427 22.5121 135.496 23.292 136.379 24.2705C137.261 25.249 137.944 26.3976 138.427 27.7164C138.91 29.0353 139.151 30.4179 139.151 31.8643V33.7788C139.151 34.0907 139.041 34.3602 138.82 34.5871C138.599 34.814 138.337 34.9274 138.034 34.9274H124.213C124.213 35.5797 124.344 36.154 124.606 36.6504C124.868 37.1467 125.22 37.565 125.661 37.9054C126.103 38.2457 126.613 38.501 127.192 38.6711C127.772 38.8413 128.365 38.9264 128.972 38.9264C129.854 38.9264 130.572 38.8342 131.123 38.6499C131.675 38.4655 132.13 38.2315 132.489 37.9479C132.792 37.721 133.041 37.565 133.234 37.48C133.427 37.3949 133.689 37.3523 134.02 37.3523H137.33C137.634 37.3523 137.903 37.4658 138.137 37.6927C138.372 37.9196 138.475 38.189 138.448 38.501C138.42 38.898 138.206 39.4086 137.806 40.0325C137.406 40.6565 136.806 41.2662 136.006 41.8618C135.206 42.4574 134.22 42.9679 133.048 43.3934C131.875 43.8188 130.516 44.0315 128.972 44.0315C127.427 44.0315 126.027 43.755 124.772 43.2019C123.516 42.6489 122.447 41.8618 121.565 40.8408C120.682 39.8198 120.006 38.6073 119.537 37.2034C119.068 35.7995 118.833 34.2467 118.833 32.545ZM128.303 26.2387C127.491 26.2387 126.798 26.3566 126.223 26.5925C125.649 26.8283 125.166 27.1335 124.774 27.5081C124.382 27.8826 124.08 28.2988 123.87 28.7566C123.66 29.2144 123.527 29.6514 123.471 30.0675H132.968C132.911 29.6514 132.806 29.2144 132.652 28.7566C132.498 28.2988 132.246 27.8826 131.896 27.5081C131.546 27.1335 131.084 26.8283 130.509 26.5925C129.935 26.3566 129.2 26.2387 128.303 26.2387ZM148.835 35.5897C148.835 36.4682 149.063 37.1695 149.519 37.6938C149.975 38.2181 150.824 38.4802 152.067 38.4802H154.596C154.899 38.4802 155.162 38.5935 155.383 38.8202C155.604 39.0469 155.714 39.3162 155.714 39.6279V42.4334C155.714 42.7451 155.604 43.0143 155.383 43.241C155.162 43.4677 154.899 43.5811 154.596 43.5811H151.529C148.932 43.5811 146.935 42.9364 145.54 41.647C144.145 40.3576 143.447 38.381 143.447 35.7172V26.5781H140.712C140.408 26.5781 140.145 26.4648 139.924 26.2381C139.703 26.0114 139.593 25.7422 139.593 25.4304V22.625C139.593 22.3132 139.703 22.044 139.924 21.8173C140.145 21.5906 140.408 21.4773 140.712 21.4773H143.447V14.5486C143.447 14.2369 143.558 13.9676 143.779 13.7409C144 13.5142 144.262 13.4009 144.566 13.4009H147.716C148.02 13.4009 148.282 13.5142 148.503 13.7409C148.724 13.9676 148.835 14.2369 148.835 14.5486V21.4773H154.181C154.485 21.4773 154.747 21.5906 154.969 21.8173C155.19 22.044 155.3 22.3132 155.3 22.625V25.4304C155.3 25.7422 155.19 26.0114 154.969 26.2381C154.747 26.4648 154.485 26.5781 154.181 26.5781H148.835V35.5897ZM157.923 22.6564C157.923 22.3447 158.034 22.0756 158.256 21.849C158.477 21.6223 158.741 21.509 159.046 21.509H162.206C162.511 21.509 162.774 21.6223 162.996 21.849C163.218 22.0756 163.329 22.3447 163.329 22.6564V33.4502C163.329 35.15 163.682 36.5098 164.389 37.5297C165.096 38.5496 166.253 39.0596 167.861 39.0596C169.33 39.0596 170.453 38.5496 171.229 37.5297C172.005 36.5098 172.393 35.15 172.393 33.4502V22.6564C172.393 22.3447 172.504 22.0756 172.726 21.849C172.948 21.6223 173.211 21.509 173.516 21.509H176.676C176.981 21.509 177.245 21.6223 177.466 21.849C177.688 22.0756 177.799 22.3447 177.799 22.6564V42.4592C177.799 42.7708 177.688 43.04 177.466 43.2666C177.245 43.4932 176.981 43.6066 176.676 43.6066H173.516C173.211 43.6066 172.948 43.4932 172.726 43.2666C172.504 43.04 172.393 42.7708 172.393 42.4592V41.4818C171.756 42.1334 170.966 42.7212 170.023 43.2453C169.081 43.7695 167.944 44.0315 166.613 44.0315C164.923 44.0315 163.523 43.7624 162.414 43.2241C161.305 42.6858 160.418 41.9634 159.753 41.0568C159.087 40.1503 158.616 39.095 158.339 37.8909C158.062 36.6869 157.923 35.4191 157.923 34.0876V22.6564ZM193.622 37.2672C193.622 36.9553 193.526 36.7 193.333 36.5015C193.14 36.3029 192.802 36.1186 192.319 35.9484C191.837 35.7783 191.195 35.6081 190.396 35.4379C189.596 35.2677 188.575 35.0409 187.334 34.7572C186.121 34.4736 185.114 34.1191 184.315 33.6937C183.515 33.2682 182.874 32.7719 182.391 32.2047C181.908 31.6374 181.571 30.9922 181.378 30.269C181.184 29.5458 181.088 28.7587 181.088 27.9079C181.088 27.057 181.281 26.2204 181.667 25.3979C182.053 24.5754 182.612 23.8451 183.342 23.2069C184.073 22.5688 184.963 22.0512 186.011 21.6541C187.059 21.2571 188.258 21.0585 189.61 21.0585C190.961 21.0585 192.167 21.2145 193.229 21.5265C194.291 21.8385 195.194 22.2497 195.939 22.7602C196.683 23.2708 197.263 23.8593 197.676 24.5258C198.09 25.1923 198.324 25.8658 198.38 26.5465C198.407 26.8585 198.304 27.1279 198.069 27.3548C197.835 27.5817 197.566 27.6952 197.263 27.6952H194.077C193.664 27.6952 193.353 27.6172 193.147 27.4612C192.94 27.3052 192.712 27.1279 192.464 26.9294C192.216 26.7309 191.885 26.5536 191.471 26.3976C191.057 26.2416 190.437 26.1636 189.61 26.1636C188.782 26.1636 188.051 26.2913 187.417 26.5465C186.783 26.8018 186.466 27.2556 186.466 27.9079C186.466 28.2199 186.542 28.4822 186.693 28.6949C186.845 28.9076 187.134 29.0991 187.562 29.2692C187.989 29.4394 188.582 29.6167 189.341 29.801C190.099 29.9854 191.085 30.2052 192.299 30.4604C194.753 30.9993 196.484 31.8431 197.49 32.9917C198.497 34.1404 199 35.5655 199 37.2672C199 38.1181 198.793 38.9477 198.38 39.756C197.966 40.5643 197.366 41.2875 196.58 41.9257C195.794 42.5638 194.829 43.0743 193.684 43.4572C192.54 43.8401 191.251 44.0315 189.816 44.0315C188.355 44.0315 187.066 43.8542 185.949 43.4997C184.832 43.1452 183.887 42.6843 183.115 42.1171C182.343 41.5499 181.75 40.9117 181.336 40.2027C180.922 39.4936 180.702 38.7988 180.674 38.1181C180.647 37.8061 180.75 37.5367 180.985 37.3098C181.219 37.0829 181.488 36.9694 181.791 36.9694H184.976C185.39 36.9694 185.7 37.0687 185.907 37.2672C186.114 37.4658 186.348 37.6927 186.61 37.9479C186.872 38.2032 187.238 38.4301 187.707 38.6286C188.176 38.8271 188.879 38.9264 189.816 38.9264C190.23 38.9264 190.658 38.898 191.099 38.8413C191.54 38.7846 191.947 38.6924 192.319 38.5648C192.691 38.4372 193.002 38.267 193.25 38.0543C193.498 37.8416 193.622 37.5792 193.622 37.2672Z" fill="url(#paint5_linear_1112_18846)"/>
<defs>
<linearGradient id="paint0_linear_1112_18846" x1="26.9999" y1="9.92017" x2="26.9999" y2="49.925" gradientUnits="userSpaceOnUse">
<stop stop-color="#FF6122"/>
<stop offset="1" stop-color="#F3400E"/>
</linearGradient>
<linearGradient id="paint1_linear_1112_18846" x1="38.3033" y1="0.817871" x2="38.3033" y2="18.1828" gradientUnits="userSpaceOnUse">
<stop stop-color="#FF6122"/>
<stop offset="1" stop-color="#F3400E"/>
</linearGradient>
<linearGradient id="paint2_linear_1112_18846" x1="7.74925" y1="1.32812" x2="7.74925" y2="49.5951" gradientUnits="userSpaceOnUse">
<stop stop-color="#FF6122"/>
<stop offset="1" stop-color="#F3400E"/>
</linearGradient>
<linearGradient id="paint3_linear_1112_18846" x1="8.5361" y1="3.83789" x2="8.5361" y2="12.3091" gradientUnits="userSpaceOnUse">
<stop stop-color="#FF6122"/>
<stop offset="1" stop-color="#F3400E"/>
</linearGradient>
<linearGradient id="paint4_linear_1112_18846" x1="23.7759" y1="0.112549" x2="23.7759" y2="10.395" gradientUnits="userSpaceOnUse">
<stop stop-color="#FF6122"/>
<stop offset="1" stop-color="#F3400E"/>
</linearGradient>
<linearGradient id="paint5_linear_1112_18846" x1="125.348" y1="13.4009" x2="125.348" y2="44.0315" gradientUnits="userSpaceOnUse">
<stop stop-color="#FF6122"/>
<stop offset="1" stop-color="#F3400E"/>
</linearGradient>
</defs>
</svg>
